<svg width="2825" height="875" viewBox="0 0 2825 875" fill="none" xmlns="http://www.w3.org/2000/svg">
<path d="M760.88 845.218C741.251 845.218 722.583 842.018 704.874 835.617C687.165 829.43 671.27 820.682 657.189 809.374C643.32 798.28 632.013 785.265 623.265 770.33L703.914 731.285C709.461 741.527 717.355 749.314 727.596 754.648C738.051 759.982 749.359 762.649 761.52 762.649C774.535 762.649 786.803 760.409 798.324 755.928C809.846 751.661 819.02 745.154 825.847 736.406C832.888 727.872 836.195 717.204 835.768 704.402V603.911H846.65V336.362H922.818V705.683C922.818 714.217 922.391 722.218 921.538 729.685C920.898 737.366 919.618 744.94 917.698 752.408C912.15 773.53 901.803 790.919 886.654 804.574C871.719 818.228 853.37 828.363 831.608 834.977C809.846 841.804 786.27 845.218 760.88 845.218ZM753.199 691.601C721.409 691.601 693.566 683.6 669.67 667.598C645.774 651.597 627.105 629.834 613.664 602.311C600.436 574.788 593.822 543.745 593.822 509.181C593.822 473.977 600.542 442.72 613.984 415.41C627.639 387.887 646.734 366.232 671.27 350.443C695.806 334.655 724.609 326.761 757.68 326.761C790.537 326.761 818.167 334.761 840.569 350.763C862.972 366.765 879.933 388.527 891.455 416.05C902.976 443.574 908.737 474.617 908.737 509.181C908.737 543.745 902.869 574.788 891.135 602.311C879.613 629.834 862.331 651.597 839.289 667.598C816.246 683.6 787.55 691.601 753.199 691.601ZM767.281 614.152C786.696 614.152 802.165 609.779 813.686 601.031C825.421 592.283 833.848 580.015 838.969 564.227C844.089 548.438 846.65 530.09 846.65 509.181C846.65 488.272 844.089 469.923 838.969 454.135C833.848 438.346 825.634 426.078 814.326 417.331C803.232 408.583 788.617 404.209 770.481 404.209C751.066 404.209 735.064 409.01 722.476 418.611C710.101 427.998 700.927 440.693 694.953 456.695C688.979 472.483 685.992 489.979 685.992 509.181C685.992 528.596 688.872 546.305 694.633 562.307C700.393 578.095 709.248 590.683 721.196 600.071C733.144 609.459 748.505 614.152 767.281 614.152ZM1141.1 692.241C1114 692.241 1091.92 687.654 1074.85 678.48C1057.78 669.305 1044.45 657.677 1034.85 643.596C1025.46 629.514 1018.74 614.899 1014.68 599.751C1010.63 584.389 1008.18 570.414 1007.32 557.826C1006.47 545.238 1006.04 536.064 1006.04 530.303V336.362H1094.37V499.58C1094.37 507.474 1094.8 517.608 1095.65 529.983C1096.51 542.144 1099.17 554.412 1103.65 566.787C1108.13 579.162 1115.39 589.51 1125.42 597.831C1135.66 606.152 1150.06 610.312 1168.62 610.312C1176.09 610.312 1184.09 609.139 1192.62 606.792C1201.16 604.445 1209.16 599.964 1216.63 593.35C1224.09 586.523 1230.17 576.602 1234.87 563.587C1239.78 550.359 1242.23 533.077 1242.23 511.741L1292.15 535.424C1292.15 562.733 1286.61 588.336 1275.51 612.232C1264.42 636.128 1247.67 655.437 1225.27 670.159C1203.08 684.88 1175.02 692.241 1141.1 692.241ZM1253.11 682V567.427H1242.23V336.362H1329.92V682H1253.11ZM1654.91 682V518.782C1654.91 510.888 1654.48 500.86 1653.63 488.699C1652.78 476.324 1650.11 463.949 1645.63 451.574C1641.15 439.2 1633.79 428.852 1623.55 420.531C1613.52 412.21 1599.22 408.05 1580.66 408.05C1573.19 408.05 1565.19 409.223 1556.66 411.57C1548.12 413.917 1540.12 418.504 1532.66 425.331C1525.19 431.946 1519 441.76 1514.09 454.775C1509.4 467.79 1507.05 485.071 1507.05 506.621L1457.13 482.938C1457.13 455.628 1462.67 430.025 1473.77 406.129C1484.86 382.233 1501.51 362.925 1523.69 348.203C1546.1 333.481 1574.26 326.12 1608.18 326.12C1635.28 326.12 1657.36 330.708 1674.43 339.882C1691.5 349.056 1704.73 360.684 1714.12 374.766C1723.72 388.847 1730.54 403.569 1734.6 418.931C1738.65 434.079 1741.11 447.947 1741.96 460.535C1742.81 473.123 1743.24 482.298 1743.24 488.058V682H1654.91ZM1418.72 682V336.362H1496.17V450.934H1507.05V682H1418.72ZM1855.09 682V337.642C1855.09 328.894 1855.3 318.973 1855.73 307.878C1856.15 296.784 1857.86 285.583 1860.85 274.275C1864.05 262.967 1869.81 252.726 1878.13 243.551C1888.8 231.603 1900.32 223.496 1912.69 219.229C1925.28 214.748 1937.44 212.401 1949.18 212.188C1960.91 211.761 1970.94 211.548 1979.26 211.548H2022.15V281.956H1982.46C1968.81 281.956 1958.67 285.476 1952.06 292.517C1945.44 299.344 1942.14 307.558 1942.14 317.159V682H1855.09ZM1800.68 403.569V336.362H2022.15V403.569H1800.68ZM2216.22 691.601C2181.44 691.601 2150.93 683.814 2124.69 668.238C2098.45 652.663 2077.97 631.221 2063.24 603.911C2048.74 576.388 2041.48 544.811 2041.48 509.181C2041.48 473.123 2048.95 441.44 2063.88 414.13C2078.82 386.607 2099.41 365.165 2125.65 349.803C2151.89 334.441 2182.08 326.761 2216.22 326.761C2251 326.761 2281.51 334.548 2307.75 350.123C2334.21 365.698 2354.8 387.247 2369.52 414.77C2384.24 442.08 2391.6 473.55 2391.6 509.181C2391.6 545.025 2384.13 576.708 2369.2 604.231C2354.48 631.541 2333.89 652.983 2307.43 668.559C2281.19 683.92 2250.79 691.601 2216.22 691.601ZM2216.22 610.312C2244.17 610.312 2264.97 600.924 2278.63 582.149C2292.5 563.16 2299.43 538.837 2299.43 509.181C2299.43 478.457 2292.39 453.921 2278.31 435.573C2264.44 417.224 2243.74 408.05 2216.22 408.05C2197.23 408.05 2181.66 412.317 2169.5 420.851C2157.34 429.385 2148.27 441.227 2142.29 456.375C2136.53 471.523 2133.65 489.125 2133.65 509.181C2133.65 540.118 2140.59 564.76 2154.45 583.109C2168.54 601.244 2189.13 610.312 2216.22 610.312ZM2697.53 682V518.782C2697.53 510.888 2697.1 500.86 2696.25 488.699C2695.39 476.324 2692.72 463.949 2688.24 451.574C2683.76 439.2 2676.4 428.852 2666.16 420.531C2656.13 412.21 2641.84 408.05 2623.28 408.05C2615.81 408.05 2607.81 409.223 2599.27 411.57C2590.74 413.917 2582.74 418.504 2575.27 425.331C2567.8 431.946 2561.62 441.76 2556.71 454.775C2552.02 467.79 2549.67 485.071 2549.67 506.621L2499.74 482.938C2499.74 455.628 2505.29 430.025 2516.39 406.129C2527.48 382.233 2544.12 362.925 2566.31 348.203C2588.71 333.481 2616.88 326.12 2650.8 326.12C2677.9 326.12 2699.98 330.708 2717.05 339.882C2734.12 349.056 2747.34 360.684 2756.73 374.766C2766.33 388.847 2773.16 403.569 2777.21 418.931C2781.27 434.079 2783.72 447.947 2784.58 460.535C2785.43 473.123 2785.86 482.298 2785.86 488.058V682H2697.53ZM2461.34 682V336.362H2538.79V450.934H2549.67V682H2461.34Z" fill="#022B69"/>
<path d="M302.711 93.8955C335.931 96.861 357.781 103.621 386.789 120.107C402.017 140.72 402.018 140.719 413.862 166.377C416.069 171.126 418.276 175.874 420.55 180.767C470.535 291.057 510.506 404.776 540.334 522.07C544.031 536.462 547.973 550.791 551.933 565.113C564.031 609.865 570.604 648.668 567.93 695.031C521.039 715.871 477.704 728.466 426.168 718.658C423.72 716.591 421.544 714.751 419.584 713.088C419.298 665.071 415.855 618.011 404.828 570.882C404.065 567.818 403.323 564.843 402.582 561.869C388.896 506.101 370.35 453.885 346.229 401.797C341.762 392.325 338.696 383.329 336.397 373.104C347.583 369.375 347.585 369.374 358.537 359.819C381.176 336.11 387.278 312.129 388.6 279.886C366.481 280.634 346.012 281.489 325.678 290.839C313.31 297.034 301.189 301.905 287.925 305.986C283.127 289.63 277.934 274.621 269.747 259.611C261.312 249.44 255.766 246.095 243.18 242.599C242.281 262.395 242.28 262.396 239.567 282.056C239.052 285.755 238.553 289.346 238.053 292.937C237.332 298.43 237.332 298.431 236.626 303.816C236.131 307.367 235.65 310.814 235.169 314.26C234.031 323.642 234.031 323.643 231.994 332.088C227.793 338.389 223.641 344.727 219.667 351.174C217.772 354.301 215.932 357.337 214.093 360.373C209.726 367.567 205.362 374.763 200.999 381.959C189.13 401.542 177.273 421.131 165.138 440.551C162.747 444.35 160.425 448.039 158.104 451.727C153.685 458.768 149.262 465.808 144.836 472.846C142.666 476.249 140.558 479.554 138.451 482.857C136.472 486.01 134.551 489.071 132.63 492.131C126.012 502.558 123.861 505.898 123.861 518.522C152.207 528.268 180.609 537.084 209.622 544.623C228.362 517.654 244.298 488.67 278.661 482.212C283.338 481.719 283.34 481.718 287.925 481.235C296.624 479.991 305.325 478.748 314.025 477.507C321.991 526.084 326.23 574.075 326.17 623.263C326.157 627.328 326.157 627.33 326.144 631.315C326.128 641.645 325.968 651.898 325.636 662.076C311.143 660.885 296.236 660.999 280.468 661.067C271.651 660.877 271.651 660.878 262.655 660.684C226.64 660.652 203.241 663.807 174.146 687.156C170.299 692.781 166.451 698.404 162.486 704.199C150.519 718.658 150.519 718.659 130.922 722.289C33.0356 719.311 33.0351 719.311 0.880859 687.156C-2.60997 643.903 5.27701 606.82 16.6328 565.575C18.3657 559.18 20.0984 552.784 21.8838 546.195C53.2408 433.219 89.3117 321.16 136.244 213.631L143.606 196.555C172.902 132.051 199.889 95.4578 274.068 94.5117C288.246 94.2072 288.247 94.2062 302.711 93.8955Z" fill="#022B69"/>
</svg>
