<svg width="569" height="629" viewBox="0 0 569 629" fill="none" xmlns="http://www.w3.org/2000/svg">
<path d="M302.664 0C335.885 2.96552 357.734 9.7251 386.743 26.2119C401.971 46.824 401.972 46.824 413.816 72.4814C416.023 77.2301 418.23 81.9786 420.503 86.8711C470.488 197.162 510.46 310.881 540.288 428.175C543.985 442.567 547.926 456.896 551.886 471.218C563.984 515.969 570.558 554.773 567.883 601.136C520.993 621.976 477.658 634.571 426.121 624.763C423.674 622.696 421.497 620.856 419.538 619.192C419.252 571.176 415.809 524.116 404.782 476.986C404.018 473.922 403.277 470.947 402.536 467.974C388.85 412.205 370.304 359.99 346.182 307.901C341.715 298.429 338.65 289.434 336.351 279.208C347.536 275.48 347.538 275.478 358.491 265.924C381.13 242.214 387.232 218.233 388.553 185.99C366.435 186.739 345.966 187.593 325.631 196.943C313.263 203.139 301.142 208.01 287.878 212.091C283.08 195.734 277.888 180.726 269.701 165.716C261.266 155.544 255.719 152.199 243.133 148.703C242.234 168.499 242.234 168.501 239.521 188.16C239.006 191.859 238.506 195.451 238.006 199.041C237.286 204.534 237.286 204.536 236.579 209.921C236.084 213.471 235.603 216.918 235.122 220.364C233.984 229.746 233.984 229.748 231.948 238.192C227.747 244.494 223.594 250.831 219.621 257.278C217.726 260.406 215.885 263.442 214.046 266.478C209.68 273.671 205.315 280.867 200.953 288.063C189.084 307.647 177.226 327.235 165.091 346.655C162.7 350.455 160.379 354.143 158.058 357.831C153.639 364.873 149.216 371.913 144.789 378.95C142.619 382.354 140.511 385.658 138.405 388.962C136.426 392.114 134.504 395.176 132.583 398.235C125.965 408.662 123.815 412.003 123.815 424.627C152.161 434.372 180.562 443.189 209.576 450.728C228.315 423.758 244.252 394.775 278.615 388.316C283.292 387.824 283.294 387.823 287.878 387.34C296.578 386.096 305.279 384.853 313.979 383.611C321.944 432.188 326.184 480.18 326.123 529.367C326.11 533.432 326.11 533.435 326.097 537.42C326.082 547.75 325.922 558.002 325.589 568.181C311.097 566.989 296.189 567.104 280.421 567.172C271.604 566.982 271.604 566.982 262.609 566.788C226.594 566.756 203.195 569.911 174.1 593.261C170.252 598.885 166.404 604.509 162.44 610.304C150.473 624.763 150.472 624.763 130.875 628.394C32.9892 625.415 32.9887 625.415 0.834382 593.261C-2.65645 550.007 5.23054 512.924 16.5863 471.68C18.3192 465.284 20.0519 458.889 21.8373 452.3C53.1943 339.323 89.2652 227.265 136.198 119.735L143.56 102.659C172.856 38.1556 199.843 1.56233 274.022 0.616211C288.199 0.311644 288.2 0.31072 302.664 0Z" fill="white"/>
</svg>
